<?xml version="1.0" standalone="no"?><!DOCTYPE svg PUBLIC "-//W3C//DTD SVG 1.1//EN" "http://www.w3.org/Graphics/SVG/1.1/DTD/svg11.dtd"><svg t="1687233707161" class="icon" viewBox="0 0 1024 1024" version="1.1" xmlns="http://www.w3.org/2000/svg" p-id="756" xmlns:xlink="http://www.w3.org/1999/xlink" width="1024" height="1024"><path d="M511.99616 819.193856a307.197696 307.197696 0 1 0-307.197696-307.197696 307.197696 307.197696 0 0 0 307.197696 307.197696z m0-511.99616a204.798464 204.798464 0 1 1-204.798464 204.798464 204.798464 204.798464 0 0 1 204.798464-204.798464z" fill="#1296db" p-id="757"></path><path d="M179.198656 179.198656m-102.399232 0a102.399232 102.399232 0 1 0 204.798464 0 102.399232 102.399232 0 1 0-204.798464 0Z" fill="#1296db" p-id="758"></path><path d="M511.99616 0a508.412187 508.412187 0 0 0-236.542226 58.367562l76.799424 76.799424a409.596928 409.596928 0 1 1-217.086372 217.086372l-76.799424-76.799424A511.99616 511.99616 0 1 0 511.99616 0z" fill="#1296db" p-id="759"></path><path d="M511.99616 511.99616m-102.399232 0a102.399232 102.399232 0 1 0 204.798464 0 102.399232 102.399232 0 1 0-204.798464 0Z" fill="#1296db" p-id="760"></path></svg>